# xmcd
#
# Track frame offsets:
#	150
#	13005
#	30859
#	52754
#	67469
#	80682
#	96450
#	108814
#	158487
#
# Disc length: 2282 seconds
#
# Revision: 0
# Processed by: cddbd v1.5PL3 Copyright (c) Steve Scherf et al.
# Submitted via: audiograbber 1.80
#
DISCID=6608e809
DTITLE=Canned Heat - Boogie With Canned Heat
DYEAR=1900
DGENRE=
TTITLE0=Evil Woman
TTITLE1=My Crime
TTITLE2=On The Road Again
TTITLE3=World In A Jug
TTITLE4=Turpentine Moan
TTITLE5=Amphetamine Annie
TTITLE6=An Owl Song
TTITLE7=Fried Hockey Boogie
TTITLE8=Whiskey Headed Woman
EXTD=
EXTT0=
EXTT1=
EXTT2=
EXTT3=
EXTT4=
EXTT5=
EXTT6=
EXTT7=
EXTT8=
PLAYORDER=
